<mxfile host="app.diagrams.net" agent="Mozilla/5.0 (Macintosh; Intel Mac OS X 10_15_7) AppleWebKit/537.36 (KHTML, like Gecko) Chrome/137.0.0.0 Safari/537.36" version="27.0.4">
  <diagram name="Page-1" id="f6Qn3AQjlqci221adrYq">
    <mxGraphModel dx="1943" dy="1185" grid="1" gridSize="10" guides="1" tooltips="1" connect="1" arrows="1" fold="1" page="1" pageScale="1" pageWidth="827" pageHeight="1169" math="0" shadow="0">
      <root>
        <mxCell id="0" />
        <mxCell id="1" parent="0" />
        <mxCell id="Lr8nQOaFzK-KaNHuz75q-15" style="edgeStyle=orthogonalEdgeStyle;rounded=0;orthogonalLoop=1;jettySize=auto;html=1;" edge="1" parent="1" source="Lr8nQOaFzK-KaNHuz75q-1" target="Lr8nQOaFzK-KaNHuz75q-14">
          <mxGeometry relative="1" as="geometry" />
        </mxCell>
        <mxCell id="Lr8nQOaFzK-KaNHuz75q-1" value="" style="ellipse;whiteSpace=wrap;html=1;aspect=fixed;" vertex="1" parent="1">
          <mxGeometry x="430" y="260" width="80" height="80" as="geometry" />
        </mxCell>
        <mxCell id="Lr8nQOaFzK-KaNHuz75q-17" style="edgeStyle=orthogonalEdgeStyle;rounded=0;orthogonalLoop=1;jettySize=auto;html=1;entryX=0;entryY=0.5;entryDx=0;entryDy=0;" edge="1" parent="1" source="Lr8nQOaFzK-KaNHuz75q-2" target="Lr8nQOaFzK-KaNHuz75q-16">
          <mxGeometry relative="1" as="geometry" />
        </mxCell>
        <mxCell id="Lr8nQOaFzK-KaNHuz75q-2" value="" style="ellipse;whiteSpace=wrap;html=1;aspect=fixed;" vertex="1" parent="1">
          <mxGeometry x="430" y="430" width="80" height="80" as="geometry" />
        </mxCell>
        <mxCell id="Lr8nQOaFzK-KaNHuz75q-20" style="edgeStyle=orthogonalEdgeStyle;rounded=0;orthogonalLoop=1;jettySize=auto;html=1;entryX=0;entryY=0.5;entryDx=0;entryDy=0;" edge="1" parent="1" source="Lr8nQOaFzK-KaNHuz75q-3" target="Lr8nQOaFzK-KaNHuz75q-19">
          <mxGeometry relative="1" as="geometry" />
        </mxCell>
        <mxCell id="Lr8nQOaFzK-KaNHuz75q-3" value="" style="ellipse;whiteSpace=wrap;html=1;aspect=fixed;" vertex="1" parent="1">
          <mxGeometry x="430" y="600" width="80" height="80" as="geometry" />
        </mxCell>
        <mxCell id="Lr8nQOaFzK-KaNHuz75q-11" style="edgeStyle=orthogonalEdgeStyle;rounded=0;orthogonalLoop=1;jettySize=auto;html=1;entryX=0;entryY=0.5;entryDx=0;entryDy=0;" edge="1" parent="1" source="Lr8nQOaFzK-KaNHuz75q-4" target="Lr8nQOaFzK-KaNHuz75q-3">
          <mxGeometry relative="1" as="geometry" />
        </mxCell>
        <mxCell id="Lr8nQOaFzK-KaNHuz75q-12" style="edgeStyle=orthogonalEdgeStyle;rounded=0;orthogonalLoop=1;jettySize=auto;html=1;entryX=0;entryY=0.5;entryDx=0;entryDy=0;" edge="1" parent="1" source="Lr8nQOaFzK-KaNHuz75q-4" target="Lr8nQOaFzK-KaNHuz75q-2">
          <mxGeometry relative="1" as="geometry" />
        </mxCell>
        <mxCell id="Lr8nQOaFzK-KaNHuz75q-13" style="edgeStyle=orthogonalEdgeStyle;rounded=0;orthogonalLoop=1;jettySize=auto;html=1;entryX=0;entryY=0.5;entryDx=0;entryDy=0;" edge="1" parent="1" source="Lr8nQOaFzK-KaNHuz75q-4" target="Lr8nQOaFzK-KaNHuz75q-1">
          <mxGeometry relative="1" as="geometry" />
        </mxCell>
        <mxCell id="Lr8nQOaFzK-KaNHuz75q-31" style="edgeStyle=orthogonalEdgeStyle;rounded=0;orthogonalLoop=1;jettySize=auto;html=1;entryX=0;entryY=0.5;entryDx=0;entryDy=0;" edge="1" parent="1" source="Lr8nQOaFzK-KaNHuz75q-4" target="Lr8nQOaFzK-KaNHuz75q-26">
          <mxGeometry relative="1" as="geometry" />
        </mxCell>
        <mxCell id="Lr8nQOaFzK-KaNHuz75q-39" style="edgeStyle=orthogonalEdgeStyle;rounded=0;orthogonalLoop=1;jettySize=auto;html=1;entryX=0;entryY=0.5;entryDx=0;entryDy=0;" edge="1" parent="1" source="Lr8nQOaFzK-KaNHuz75q-4" target="Lr8nQOaFzK-KaNHuz75q-22">
          <mxGeometry relative="1" as="geometry" />
        </mxCell>
        <mxCell id="Lr8nQOaFzK-KaNHuz75q-4" value="" style="ellipse;whiteSpace=wrap;html=1;aspect=fixed;" vertex="1" parent="1">
          <mxGeometry x="230" y="730" width="80" height="80" as="geometry" />
        </mxCell>
        <mxCell id="Lr8nQOaFzK-KaNHuz75q-5" value="main" style="text;html=1;align=center;verticalAlign=middle;whiteSpace=wrap;rounded=0;" vertex="1" parent="1">
          <mxGeometry x="150" y="755" width="60" height="30" as="geometry" />
        </mxCell>
        <mxCell id="Lr8nQOaFzK-KaNHuz75q-6" value="develop" style="text;html=1;align=center;verticalAlign=middle;whiteSpace=wrap;rounded=0;" vertex="1" parent="1">
          <mxGeometry x="150" y="625" width="60" height="30" as="geometry" />
        </mxCell>
        <mxCell id="Lr8nQOaFzK-KaNHuz75q-7" value="release/x" style="text;html=1;align=center;verticalAlign=middle;whiteSpace=wrap;rounded=0;" vertex="1" parent="1">
          <mxGeometry x="150" y="455" width="60" height="30" as="geometry" />
        </mxCell>
        <mxCell id="Lr8nQOaFzK-KaNHuz75q-8" value="feature/x" style="text;html=1;align=center;verticalAlign=middle;whiteSpace=wrap;rounded=0;" vertex="1" parent="1">
          <mxGeometry x="150" y="295" width="60" height="30" as="geometry" />
        </mxCell>
        <mxCell id="Lr8nQOaFzK-KaNHuz75q-18" style="edgeStyle=orthogonalEdgeStyle;rounded=0;orthogonalLoop=1;jettySize=auto;html=1;entryX=0;entryY=0.5;entryDx=0;entryDy=0;" edge="1" parent="1" source="Lr8nQOaFzK-KaNHuz75q-14" target="Lr8nQOaFzK-KaNHuz75q-16">
          <mxGeometry relative="1" as="geometry" />
        </mxCell>
        <mxCell id="Lr8nQOaFzK-KaNHuz75q-14" value="" style="ellipse;whiteSpace=wrap;html=1;aspect=fixed;" vertex="1" parent="1">
          <mxGeometry x="640" y="260" width="80" height="80" as="geometry" />
        </mxCell>
        <mxCell id="Lr8nQOaFzK-KaNHuz75q-21" style="edgeStyle=orthogonalEdgeStyle;rounded=0;orthogonalLoop=1;jettySize=auto;html=1;entryX=0;entryY=0.5;entryDx=0;entryDy=0;" edge="1" parent="1" source="Lr8nQOaFzK-KaNHuz75q-16" target="Lr8nQOaFzK-KaNHuz75q-19">
          <mxGeometry relative="1" as="geometry" />
        </mxCell>
        <mxCell id="Lr8nQOaFzK-KaNHuz75q-16" value="" style="ellipse;whiteSpace=wrap;html=1;aspect=fixed;" vertex="1" parent="1">
          <mxGeometry x="820" y="430" width="80" height="80" as="geometry" />
        </mxCell>
        <mxCell id="Lr8nQOaFzK-KaNHuz75q-37" style="edgeStyle=orthogonalEdgeStyle;rounded=0;orthogonalLoop=1;jettySize=auto;html=1;" edge="1" parent="1" source="Lr8nQOaFzK-KaNHuz75q-19" target="Lr8nQOaFzK-KaNHuz75q-35">
          <mxGeometry relative="1" as="geometry" />
        </mxCell>
        <mxCell id="Lr8nQOaFzK-KaNHuz75q-19" value="" style="ellipse;whiteSpace=wrap;html=1;aspect=fixed;" vertex="1" parent="1">
          <mxGeometry x="1020" y="600" width="80" height="80" as="geometry" />
        </mxCell>
        <mxCell id="Lr8nQOaFzK-KaNHuz75q-22" value="" style="ellipse;whiteSpace=wrap;html=1;aspect=fixed;" vertex="1" parent="1">
          <mxGeometry x="1680" y="730" width="80" height="80" as="geometry" />
        </mxCell>
        <mxCell id="Lr8nQOaFzK-KaNHuz75q-25" value="feature/y" style="text;html=1;align=center;verticalAlign=middle;whiteSpace=wrap;rounded=0;" vertex="1" parent="1">
          <mxGeometry x="150" y="140" width="60" height="30" as="geometry" />
        </mxCell>
        <mxCell id="Lr8nQOaFzK-KaNHuz75q-29" style="edgeStyle=orthogonalEdgeStyle;rounded=0;orthogonalLoop=1;jettySize=auto;html=1;" edge="1" parent="1" source="Lr8nQOaFzK-KaNHuz75q-26" target="Lr8nQOaFzK-KaNHuz75q-27">
          <mxGeometry relative="1" as="geometry" />
        </mxCell>
        <mxCell id="Lr8nQOaFzK-KaNHuz75q-26" value="" style="ellipse;whiteSpace=wrap;html=1;aspect=fixed;" vertex="1" parent="1">
          <mxGeometry x="430" y="90" width="80" height="80" as="geometry" />
        </mxCell>
        <mxCell id="Lr8nQOaFzK-KaNHuz75q-30" style="edgeStyle=orthogonalEdgeStyle;rounded=0;orthogonalLoop=1;jettySize=auto;html=1;" edge="1" parent="1" source="Lr8nQOaFzK-KaNHuz75q-27" target="Lr8nQOaFzK-KaNHuz75q-28">
          <mxGeometry relative="1" as="geometry" />
        </mxCell>
        <mxCell id="Lr8nQOaFzK-KaNHuz75q-27" value="" style="ellipse;whiteSpace=wrap;html=1;aspect=fixed;" vertex="1" parent="1">
          <mxGeometry x="650" y="90" width="80" height="80" as="geometry" />
        </mxCell>
        <mxCell id="Lr8nQOaFzK-KaNHuz75q-33" style="edgeStyle=orthogonalEdgeStyle;rounded=0;orthogonalLoop=1;jettySize=auto;html=1;entryX=0;entryY=0.5;entryDx=0;entryDy=0;" edge="1" parent="1" source="Lr8nQOaFzK-KaNHuz75q-28" target="Lr8nQOaFzK-KaNHuz75q-32">
          <mxGeometry relative="1" as="geometry" />
        </mxCell>
        <mxCell id="Lr8nQOaFzK-KaNHuz75q-28" value="" style="ellipse;whiteSpace=wrap;html=1;aspect=fixed;" vertex="1" parent="1">
          <mxGeometry x="930" y="90" width="80" height="80" as="geometry" />
        </mxCell>
        <mxCell id="Lr8nQOaFzK-KaNHuz75q-36" style="edgeStyle=orthogonalEdgeStyle;rounded=0;orthogonalLoop=1;jettySize=auto;html=1;entryX=0;entryY=0.5;entryDx=0;entryDy=0;" edge="1" parent="1" source="Lr8nQOaFzK-KaNHuz75q-32" target="Lr8nQOaFzK-KaNHuz75q-35">
          <mxGeometry relative="1" as="geometry" />
        </mxCell>
        <mxCell id="Lr8nQOaFzK-KaNHuz75q-32" value="" style="ellipse;whiteSpace=wrap;html=1;aspect=fixed;" vertex="1" parent="1">
          <mxGeometry x="1180" y="430" width="80" height="80" as="geometry" />
        </mxCell>
        <mxCell id="Lr8nQOaFzK-KaNHuz75q-34" style="edgeStyle=orthogonalEdgeStyle;rounded=0;orthogonalLoop=1;jettySize=auto;html=1;entryX=0;entryY=0.5;entryDx=0;entryDy=0;" edge="1" parent="1" source="Lr8nQOaFzK-KaNHuz75q-16" target="Lr8nQOaFzK-KaNHuz75q-32">
          <mxGeometry relative="1" as="geometry" />
        </mxCell>
        <mxCell id="Lr8nQOaFzK-KaNHuz75q-38" style="edgeStyle=orthogonalEdgeStyle;rounded=0;orthogonalLoop=1;jettySize=auto;html=1;entryX=0;entryY=0.5;entryDx=0;entryDy=0;exitX=1;exitY=0.5;exitDx=0;exitDy=0;" edge="1" parent="1" source="Lr8nQOaFzK-KaNHuz75q-32" target="Lr8nQOaFzK-KaNHuz75q-22">
          <mxGeometry relative="1" as="geometry">
            <Array as="points">
              <mxPoint x="1590" y="470" />
              <mxPoint x="1590" y="770" />
            </Array>
          </mxGeometry>
        </mxCell>
        <mxCell id="Lr8nQOaFzK-KaNHuz75q-35" value="" style="ellipse;whiteSpace=wrap;html=1;aspect=fixed;" vertex="1" parent="1">
          <mxGeometry x="1440" y="600" width="80" height="80" as="geometry" />
        </mxCell>
      </root>
    </mxGraphModel>
  </diagram>
</mxfile>
